<svg height="52" viewBox="0 0 54 52" width="54" xmlns="http://www.w3.org/2000/svg" xmlns:xlink="http://www.w3.org/1999/xlink"><mask id="a" fill="#fff"><path d="m2.23870968 2.68817204c1.23655914 0 2.23817204-.81182795 2.23817204-1.34408602 0-.53225806-1.00215054-1.34408602-2.23817204-1.34408602-1.23655914 0-2.23870968.77258065-2.23870968 1.34408602 0 .57150538 1.00215054 1.34408602 2.23870968 1.34408602z" fill="#fff" fill-rule="evenodd"/></mask><g fill="none" fill-rule="evenodd" transform="translate(1.031056 1.192601)"><g fill-rule="nonzero"><path d="m12.9139785 42.7774194 11.716129 4.4408602 1.8715054-2.9586022 5.2693548-5.95 3.1198925-15.9290322-4.6118279-12.1161291h-4.6494624l-6.7139785 4.2693549-1.8897849 16.877957z" fill="#ffa6bb"/><path d="m2.86612903 46.944086 6.4155914.4870968 3.69462367-6.305914 3.6913978-14.0672043 1.9725807-12.7919355 7.6994623-4.27204298 1.7247312-.54032258 9.2440861 12.46774196.8903225 15.2806451 1.5387097 7.3102151v2.9188172h9.0392473v-44.82150538h-46.12795697z" fill="#fff"/><g fill="#222"><path d="m25.8419355 47.1236559c1.4741935-2.5043011 3.155914-4.4010753 5.0456989-5.6908602 1.8924731-1.2903226 4.2580645-1.8892473 7.1021505-1.7978495l2.5967742 5.4247312v2.0698925h-14.7424731z"/><path d="m23.7596774 30.5688172c-2.027957-1.0231183-3.3473118-2.5177419-3.9569892-4.483871-1.1634409-3.3510752-.7268817-8.704301 0-10.2919354.7258064-1.5870968 3.455914-3.5870968 5.6537634-3.3645162.2634409-.6129032.7526882-1.3924731 1.4623656-2.3408602.0268817.1193548.0268817.2311828 0 .3333333-.0483871.155914-.4623656 1.4919355-.483871 2.1064517 1.7688172 0 2.9408603 1.2096774 3.6290323 2.2956989.8172043 1.2956989 1.2311828 2.8709677 1.8548387 5.532258.6236559 2.6612904 1.188172 5.4408603.6827957 7.7204302-.5037634 2.2849462-2.4489247 11.1666666-2.7634409 11.7956989-.3155914.6274193 3.7204302-1.839785 5.9365592-1.5698925 1.8295699.2258065 3.9268817 4.3586022 4.7634408 8.1817204.2688172 1.2311828-.8526881-4.9838709-.8086021-5.2026881.516129-2.5537635.4811828-4.0967742 0-7.3978495s-.4032258-1.6473118-.327957-6.2930108c.0715054-4.6451612-1.4489247-12.6580645-2.5182796-14.3241935-1.0688172-1.6666667-4.4333333-4.48387097-7.9989247-4.42204301-3.5672043.06129032-5.5182796.25806451-8.1758064 2.22580641-2.6580646 1.9709678-3.2973119 3.2204301-4.3333334 5.8645162-1.0376344 2.6451613-.8924731 10.1806451-1.860215 12.8870967-.9698925 2.7096775-1.5107527 9.1215054-3.3053764 11.7849463-.8897849 1.3204301 4.6849463-3.2258065 8.1731183-5.827957 1.9623656-1.4634409 3.188172-.7096774 3.4032258-1.3064516.3951613-1.1037635.716129-2.4032258.9623656-3.8924731z"/><path d="m8.40752688 46.7903226c.38172043-.3623656 1.08494624-2.9311828 5.00107532-8.7096774.2096774-.0080646 4.8354838-1.5446237 4.6612903-1.3731183-2.5602151 2.527957-3.3064516 4.544086-7.0623656 10.332258-.0672043.1032259-2.98118281.1129033-2.60000002-.2494623z"/></g></g><path d="m36.4752688 35.1193548c1.7967742 2.7688172 2.911828 4.9973119 3.3456989 6.6827957.433871 1.6854839.7403226 3.3306452.9182796 4.9354839" stroke="#222" stroke-linecap="round" stroke-linejoin="round" stroke-width="1.612903"/><path d="m25.1645161 46.8844086c1.1435484-3.0225806 2.8344086-5.2698925 5.0731183-6.7419355 2.2381721-1.4731183 4.8473118-2.1290322 7.8263441-1.9677419" stroke="#222" stroke-linecap="round" stroke-linejoin="round" stroke-width="1.612903"/><path d="m13.3736559 41.6892473c2.1322581 2.3333333 6.1258065 3.7075269 11.9801075 4.1215054.1521506.0913978.2903226 1.5677419-.394086 1.6091398-1.2064516.0752688-5.9370968.0107527-14.1919355-.1989248l2.605914-5.5268817z" fill="#222" fill-rule="nonzero"/><path d="m0 49.888172h51.4123656v-49.888172h-51.4123656z" stroke="#222" stroke-linecap="round" stroke-linejoin="round" stroke-width="1.612903"/><path d="m48.9688172 2.51505376v44.91505374h-46.40752688l-.07258064-44.91505374z" stroke="#222" stroke-linecap="round" stroke-linejoin="round" stroke-width="1.612903"/><path d="m50.8064516.2688172-1.6129032 2.15053764m-48.9247312 47.31182796 2.29569893-2.2301075m-.14516129-45.08172046-2.15053764-2.15053764m48.5956989 47.0591398 2.0129033 2.0903226" stroke="#222" stroke-linecap="round" stroke-linejoin="round" stroke-width="1.612903"/><g fill-rule="nonzero"><path d="m22.1311828 20.9677419c1.2365591 0 2.238172-.8118279 2.238172-1.344086s-1.0021505-1.344086-2.238172-1.344086c-1.2365591 0-2.2387097.7725806-2.2387097 1.344086s1.0021506 1.344086 2.2387097 1.344086z" fill="#fff"/><path d="m22.655914 18.327957c.9838709.1827957 1.7134408.8413978 1.7134408 1.2956989 0 .4430108-.6956989 1.0806452-1.6430107 1.2811828-.4784946-.1913978-.8225807-.7026882-.8225807-1.3037634 0-.5709678.311828-1.0612904.7580646-1.2725807z" fill="#222"/><path d="m2.23870968 2.68817204c1.23655914 0 2.23817204-.81182795 2.23817204-1.34408602 0-.53225806-1.00215054-1.34408602-2.23817204-1.34408602-1.23655914 0-2.23870968.77258065-2.23870968 1.34408602 0 .57150538 1.00215054 1.34408602 2.23870968 1.34408602z" fill="#fff" transform="translate(25.806452 18.27957)"/><path d="m2.82903226 0h.01451613c.38225806 0 .74784946.07903226 1.06505376.20430108.31182796.25053763.5172043.66129032.5172043 1.12526881 0 .50268817-.24086021.94301076-.60215054 1.18602151-.27150537.09677419-.57419354.16129032-.89408602.16666666-.56935484-.12849462-.99408602-.6876344-.99408602-1.35430107 0-.62903226.37634409-1.16129032.89247312-1.32795699z" fill="#222" mask="url(#a)" transform="translate(25.806452 18.27957)"/></g></g></svg>