<svg height="52" viewBox="0 0 69 52" width="69" xmlns="http://www.w3.org/2000/svg"><g fill="none" fill-rule="evenodd" transform="translate(0 1.192601)"><g stroke="#222" stroke-linecap="round" stroke-linejoin="round" stroke-width="1.785714" transform="translate(5.130785 19.642857)"><path d="m2.64691482.2125v5.5922619"/><path d="m0 2.97619048h5.35596915"/></g><g stroke="#222" stroke-linecap="round" stroke-linejoin="round" stroke-width="1.785714" transform="translate(42.186452 28.571429)"><path d="m2.11730382.1702381v4.47380952"/><path d="m0 2.38095238h4.28477532"/></g><g stroke="#222" stroke-linecap="round" stroke-linejoin="round" stroke-width="1.785714" transform="translate(50.167673 19.047619)"><path d="m3.13262911.14464286-3.02944333 3.16309524"/><path d="m.13853119.14464286 3.02944332 3.16309524"/></g><g stroke="#222" stroke-linecap="round" stroke-linejoin="round" stroke-width="1.785714" transform="translate(23.943662 19.047619)"><path d="m3.4667002.14464286-3.02944332 3.16309524"/><path d="m.47260228.14464286 3.02944333 3.16309524"/></g><g fill-rule="nonzero"><ellipse cx="15.677398" cy="33.630953" fill="#222" rx="1.425218" ry="1.488095"/><ellipse cx="58.433937" cy="34.821429" fill="#222" rx="1.425218" ry="1.488095"/><ellipse cx="40.761234" cy="12.797619" fill="#222" rx="1.425218" ry="1.488095"/><ellipse cx="1.425218" cy="37.202381" fill="#222" rx="1.425218" ry="1.488095"/><ellipse cx="30.214621" cy="28.571429" fill="#222" rx="1.140174" ry="1.190476"/><ellipse cx="17.102616" cy="12.5" fill="#222" rx="1.710262" ry="1.785714"/><path d="m24.7583166 0h39.0914487v35.0255952l-7.0166332 6.2732143h-38.3400737l-.2508384-35.02559521z" fill="#c9bff4" stroke="#222" stroke-linecap="round" stroke-linejoin="round" stroke-width="1.785714"/><path d="m18.2427901 5.95238095h38.590342v35.02559525h-38.590342z" fill="#c9bff4" stroke="#222" stroke-linecap="round" stroke-linejoin="round" stroke-width="1.785714"/><path d="m22.8034876 44.047619h11.4017438v5.7505953h-11.4017438z" fill="#222"/><path d="m43.3266264 44.6428571h11.4017438v5.339881h-11.4017438z" fill="#222"/><path d="m28.5043595 41.0714286h5.7008719v5.2279762h-5.7008719z" fill="#222"/><path d="m49.0274983 41.0714286h5.7008719v5.2279762h-5.7008719z" fill="#222"/><path d="m31.3547954 26.1904762h12.5293763v6.7958333h-12.5293763z" fill="#fff" stroke="#222" stroke-linecap="round" stroke-linejoin="round" stroke-width="1.785714"/></g><path d="m56.6894702 6.53452381 7.0166331-6.27321429" stroke="#222" stroke-linecap="round" stroke-linejoin="round" stroke-width="1.785714"/><path d="m24.5137492 16.827381s.751945-3.1369048 4.2602615-3.1369048c3.5083166 0 4.2602616 3.1369048 4.2602616 3.1369048" stroke="#222" stroke-linecap="round" stroke-linejoin="round" stroke-width="1.785714"/><path d="m42.186452 16.827381s.751945-3.1369048 4.2602616-3.1369048 4.2602616 3.1369048 4.2602616 3.1369048" stroke="#222" stroke-linecap="round" stroke-linejoin="round" stroke-width="1.785714"/><path d="m60.1253856 21.3529762 7.5986922-7.9339286" stroke="#222" stroke-linecap="round" stroke-linejoin="round" stroke-width="1.785714"/><ellipse cx="50.452716" cy="28.27381" fill="#fff" fill-rule="nonzero" rx="1.425218" ry="1.488095"/><ellipse cx="24.798793" cy="28.27381" fill="#fff" fill-rule="nonzero" rx="1.425218" ry="1.488095"/><ellipse cx="44.181757" cy="16.964286" fill="#222" fill-rule="nonzero" rx="3.13548" ry="3.27381"/><ellipse cx="27.079142" cy="16.964286" fill="#222" fill-rule="nonzero" rx="3.13548" ry="3.27381"/></g></svg>