<svg height="53" viewBox="0 0 67 53" width="67" xmlns="http://www.w3.org/2000/svg"><g fill="none" fill-rule="evenodd" transform="translate(1.562112 1.692601)"><g stroke="#222" stroke-linejoin="round" stroke-width="1.685393"><path d="m0 0h62.359551v43.820225h-62.359551z" fill="#30dca6" fill-rule="nonzero"/><path d="m21.348314 11.235955h21.143023v20.224719h-21.143023z" fill="#fff" fill-rule="nonzero" transform="matrix(-1 0 0 1 63.839652 0)"/><g stroke-linecap="round" transform="translate(24.157303 6.179775)"><path d="m.28089888 2.52808989v-2.24719101" transform="matrix(-1 0 0 1 .561798 0)"/><path d="m5.33707865 2.52808989v-2.24719101" transform="matrix(-1 0 0 1 10.674158 0)"/><path d="m10.3932584 2.52808989v-2.24719101" transform="matrix(-1 0 0 1 20.786516 0)"/><path d="m15.4494382 2.52808989v-2.24719101" transform="matrix(-1 0 0 1 30.898876 0)"/></g><g stroke-linecap="round" transform="translate(24.157303 31.460674)"><path d="m.28089888 4.7752809v-4.49438202" transform="matrix(-1 0 0 1 .561798 0)"/><path d="m5.33707865 4.7752809v-2.24719101" transform="matrix(-1 0 0 1 10.674158 0)"/><path d="m10.3932584 4.7752809v-2.24719101" transform="matrix(-1 0 0 1 20.786516 0)"/><path d="m15.4494382 4.7752809v-2.24719101" transform="matrix(-1 0 0 1 30.898876 0)"/></g><g stroke-linecap="round" transform="matrix(0 1 -1 0 59.550562 9.550562)"><path d="m.04144157 14.3258427v-2.247191l.00032854-6.4079876 4.17171358-4.17171361" transform="matrix(-1 0 0 1 4.254926 0)"/><path d="m4.69182135 14.3258427v-2.247191l.02429317-6.9374443 4.55354842-4.91955154" transform="matrix(-1 0 0 1 13.961484 0)"/><path d="m14.3258427 14.3258427v-2.247191" transform="matrix(-1 0 0 1 28.651686 0)"/><path d="m21.4804798 14.3258427v-2.247191-2.72052619l-2.0984569-2.09845686" transform="matrix(-1 0 0 1 40.862502 0)"/></g><g stroke-linecap="round" transform="matrix(0 1 -1 0 21.348314 13.483146)"><path d="m.28089888 4.7752809v-2.24719101" transform="matrix(-1 0 0 1 .561798 0)"/><path d="m5.33707865 4.7752809v-2.24719101" transform="matrix(-1 0 0 1 10.674158 0)"/><path d="m3.53479326 4.7752809v-2.24719101l.0334755 11.24109821 1.9502643 1.9926035 4.87472524.0357422" transform="matrix(-1 0 0 1 13.928052 0)"/><path d="m15.4586735 8.71729865-.0092354-2.37288814 1.7462158-1.56912961-.0107017-4.70078493" transform="matrix(-1 0 0 1 32.645092 0)"/></g><path d="m53.6516854 39.3258427c-2.3275506 0-4.2134832-1.8867033-4.2134832-4.2134831 0-2.3267799 1.8859326-4.2134832 4.2134832-4.2134832 2.3267799 0 4.2134831 1.8867033 4.2134831 4.2134832 0 2.3267798-1.8867032 4.2134831-4.2134831 4.2134831z"/><path d="m58.426966 3.932584h5.617978v12.359551h-5.617978z" fill="#222" fill-rule="nonzero" stroke-linecap="round"/><path d="m3.932584 35.955056h8.426966v3.932584h-8.426966z" fill="#222" fill-rule="nonzero" stroke-linecap="round"/><path d="m3.932584 28.651685h8.426966v3.932584h-8.426966z" fill="#222" fill-rule="nonzero" stroke-linecap="round"/><path d="m0 43.820225h62.359551v6.179775h-62.359551z" fill="#30dca6" fill-rule="nonzero"/><path d="m4.10260201 44.0579084v5.2290406" stroke-linecap="round"/><path d="m9.02572444 44.0579084v5.2290406" stroke-linecap="round"/><path d="m13.9488469 44.0579084v5.2290406" stroke-linecap="round"/><path d="m18.8719693 44.0579084v5.2290406" stroke-linecap="round"/><path d="m23.7950917 44.0579084v5.2290406" stroke-linecap="round"/><path d="m28.7182141 44.0579084v5.2290406" stroke-linecap="round"/><path d="m33.6413365 44.0579084v5.2290406" stroke-linecap="round"/><path d="m38.5644589 44.0579084v5.2290406" stroke-linecap="round"/><path d="m43.4875813 44.0579084v5.2290406" stroke-linecap="round"/><path d="m48.4107037 44.0579084v5.2290406" stroke-linecap="round"/><path d="m53.3338261 44.0579084v5.2290406" stroke-linecap="round"/><path d="m58.2569483 44.0579084v5.2290406" stroke-linecap="round"/><g transform="translate(3.932584 3.932584)"><path d="m.00921429 4.49438202c-.00611072-.09284436-.00921429-.18650951-.00921429-.28089887 0-2.32677989 1.88593255-4.21348315 4.21348315-4.21348315 2.32677988 0 4.21348314 1.88670326 4.21348314 4.21348315 0 .09438936-.00310483.18805451-.00921792.28089887h.00921792v5.61797758h-8.42696629v-5.61797758z" fill="#fff" fill-rule="nonzero"/><g stroke-linecap="round"><path d="m.28089888 7.02247191h7.88520719"/><path d="m3.18457214 10.8227333-1.52307697 2.0800645"/><path d="m5.21534144 10.8227333 1.52307699 2.0800645 1.73765444 1.9937913 4.46757913-.0088617"/></g></g></g><circle cx="39.325843" cy="28.651685" fill="#222" fill-rule="nonzero" r="1.123596"/><circle cx="24.719101" cy="28.651685" fill="#222" fill-rule="nonzero" r="1.123596"/><circle cx="39.325843" cy="14.606742" fill="#222" fill-rule="nonzero" r="1.123596"/><circle cx="24.719101" cy="14.606742" fill="#222" fill-rule="nonzero" r="1.123596"/><path d="m12.3595506 38.058181h10.0293379l1.7223484-1.5413271" stroke="#222" stroke-linecap="round" stroke-linejoin="round" stroke-width="1.685393"/></g></svg>