<svg height="51" viewBox="0 0 87 51" width="87" xmlns="http://www.w3.org/2000/svg"><g fill="none" fill-rule="evenodd"><g transform="translate(.993168 26.988087)"><path d="m.35211268 22.7992958h48.15140842v-13.55633805h-48.15140842z" fill="#ffd1c6" fill-rule="nonzero"/><path d="m.35211268 22.7992958h48.15140842v-13.55633805h-48.15140842z" stroke="#222" stroke-linejoin="round" stroke-width="2.112676"/><path d="m.35211268 9.24295775 13.20422532-8.18661972h46.4788733l-11.5316902 8.18661972z" fill="#ffd1c6" fill-rule="nonzero"/><path d="m.35211268 9.24295775 13.20422532-8.18661972h46.4788733l-11.5316902 8.18661972z" stroke="#222" stroke-linejoin="round" stroke-width="2.112676"/><path d="m48.5035211 22.7992958 11.5316902-9.1549296v-12.58802817l-11.5316902 8.18661972z" fill="#fff" fill-rule="nonzero"/><g stroke="#222" stroke-linejoin="round" stroke-width="2.112676" transform="translate(47.887324 .616197)"><path d="m.61619718 22.1830986 11.53169012-9.1549296v-12.58802815l-11.53169012 8.18661971z"/><path d="m1.05633803 11.5170423 11.09154927-7.90774653"/><path d="m.61619718 15.3169014 11.53169012-8.58309858"/><path d="m.61619718 18.75 11.53169012-8.89084507"/></g><path d="m4.90211268 18.6866049h2.40915493c1.06901408 0 2.08380281-.4260563 2.08380281-1.5802817 0-.9140845-.55-1.278169-1.2471831-1.4021126v-.015493c.58098592-.1161972 1.09225353-.5035211 1.09225353-1.3169014 0-1.1619718-.9915493-1.4176056-2.04507043-1.4176056h-2.29295774zm1.23943662-3.3697183v-1.3866197h.94507042c.67394366 0 .94507042.2478873.94507042.6971831 0 .4415493-.30211268.6894366-.96056338.6894366zm0 2.4091549v-1.5183098h.96056338c.69718309 0 1.0612676.2478873 1.0612676.7514084 0 .4880282-.30985915.7669014-1.00704225.7669014zm4.2838028.9605634h4.043662v-1.0225352h-2.7809859v-1.4253521h1.9133803v-.9992958h-1.9133803v-1.2316901h2.6415493v-1.0535211h-3.9042254zm4.9035211 0h4.043662v-1.0225352h-2.7809859v-1.4253521h1.9133803v-.9992958h-1.9133803v-1.2316901h2.6415493v-1.0535211h-3.9042254zm7.0338029.1084507c1.5957746 0 2.2929577-.8211267 2.2929577-1.7429577 0-1.1852113-1.0690141-1.5028169-2.0760563-1.7739437-.7514085-.2091549-1.1774648-.371831-1.1774648-.8288732 0-.3408451.2943662-.5732395.8288732-.5732395.5577465 0 1.1077465.3253522 1.4098592.8133803l.8753521-.6661972c-.4028169-.6119718-1.1-1.1774647-2.2774648-1.1774647-1.2316901 0-2.0683099.6429577-2.0683099 1.7119718 0 1.2007042 1.0690141 1.4640845 2.0915493 1.7507042.7514085.2091549 1.1619719.3950704 1.1619719.8288733 0 .4415493-.4183099.6584507-.9992958.6584507-.6584507 0-1.2316902-.3485916-1.5492958-.9760564l-.9528169.565493c.4260563.8211267 1.2007042 1.4098591 2.4401409 1.4098591z" fill="#000" fill-rule="nonzero"/></g><g transform="translate(24.93683 13.607806)"><g fill-rule="nonzero"><path d="m.35211268 22.7992958h48.15140842v-13.55633805h-48.15140842z" fill="#ffd1c6"/><path d="m.35211268 22.7992958h48.15140842v-13.55633805h-48.15140842z" fill="#fff" stroke="#222" stroke-linejoin="round" stroke-width="2.112676"/><path d="m.35211268 9.24295775 13.20422532-8.18661972h46.4788733l-11.5316902 8.18661972z" fill="#fff"/></g><path d="m.35211268 9.24295775 13.20422532-8.18661972h46.4788733l-11.5316902 8.18661972z" stroke="#222" stroke-linejoin="round" stroke-width="2.112676"/><path d="m48.5035211 22.7992958 11.5316902-9.1549296v-12.58802817l-11.5316902 8.18661972z" fill="#fff" fill-rule="nonzero"/><g stroke="#222" stroke-linejoin="round" stroke-width="2.112676" transform="translate(47.887324 .616197)"><path d="m.61619718 22.1830986 11.53169012-9.1549296v-12.58802815l-11.53169012 8.18661971z"/><path d="m1.05633803 11.5170423 11.09154927-7.90774653"/><path d="m.61619718 15.3169014 11.53169012-8.58309858"/><path d="m.61619718 18.75 11.53169012-8.89084507"/></g><path d="m7.23380282 18.7950556c1.44084507 0 2.12253521-.8056338 2.40140845-1.9598591l-1.18521127-.2633803c-.20140845.7823944-.53450704 1.2084507-1.2084507 1.2084507-.86760564 0-1.34788733-.7591549-1.34788733-1.9676056 0-1.1852113.46478873-1.9211268 1.33239437-1.9211268.67394366 0 .9528169.4492958 1.13873239 1.1077465l1.19295775-.3485916c-.24788733-1.0302817-.87535211-1.8049295-2.32394366-1.8049295s-2.6028169.9760563-2.6028169 2.9669014c0 2.021831 1.10774647 2.9823943 2.6028169 2.9823943zm5.74788728 0c1.3788733 0 2.6957747-.9605633 2.6957747-2.9746479 0-2.0140845-1.3169014-2.9746478-2.6957747-2.9746478-1.3866197 0-2.7035211.9605633-2.7035211 2.9746478 0 2.0140846 1.3169014 2.9746479 2.7035211 2.9746479zm0-1.0147887c-.890845 0-1.440845-.7591549-1.440845-1.9598592 0-1.2007042.55-1.9288732 1.440845-1.9288732.8830986 0 1.4408451.728169 1.4408451 1.9288732 0 1.2007043-.5577465 1.9598592-1.4408451 1.9598592zm3.6098592.906338h1.7584507c1.7274648 0 3.0676056-.7436619 3.0676056-2.8971831 0-2.0915493-1.3169014-2.8352112-3.0676056-2.8352112h-1.7584507zm1.2549296-1.0225352v-3.656338h.5732394c1.2549296 0 1.7352113.5732394 1.7352113 1.7971831 0 1.3014084-.4725352 1.8591549-1.7197183 1.8591549zm4.4774648 1.0225352h4.0436619v-1.0225352h-2.7809859v-1.4253521h1.9133803v-.9992958h-1.9133803v-1.2316901h2.6415493v-1.0535211h-3.9042253z" fill="#000" fill-rule="nonzero"/></g><g transform="translate(15.077675 .227524)"><path d="m.35211268 22.7992958h48.15140842v-13.55633805h-48.15140842z" fill="#ffd1c6" fill-rule="nonzero"/><path d="m.35211268 22.7992958h48.15140842v-13.55633805h-48.15140842z" stroke="#222" stroke-linejoin="round" stroke-width="2.112676"/><path d="m.35211268 9.24295775 13.20422532-8.18661972h46.4788733l-11.5316902 8.18661972z" fill="#ffd1c6" fill-rule="nonzero"/><path d="m.35211268 9.24295775 13.20422532-8.18661972h46.4788733l-11.5316902 8.18661972z" stroke="#222" stroke-linejoin="round" stroke-width="2.112676"/><path d="m48.5035211 22.7992958 11.5316902-9.1549296v-12.58802817l-11.5316902 8.18661972z" fill="#fff" fill-rule="nonzero"/><g stroke="#222" stroke-linejoin="round" stroke-width="2.112676" transform="translate(47.887324 .616197)"><path d="m.61619718 22.1830986 11.53169012-9.1549296v-12.58802815l-11.53169012 8.18661971z"/><path d="m1.05633803 11.5170423 11.09154927-7.90774653"/><path d="m.61619718 15.3169014 11.53169012-8.58309858"/><path d="m.61619718 18.75 11.53169012-8.89084507"/></g><path d="m4.90211268 18.6866049h2.40915493c1.06901408 0 2.08380281-.4260563 2.08380281-1.5802817 0-.9140845-.55-1.278169-1.2471831-1.4021126v-.015493c.58098592-.1161972 1.09225353-.5035211 1.09225353-1.3169014 0-1.1619718-.9915493-1.4176056-2.04507043-1.4176056h-2.29295774zm1.23943662-3.3697183v-1.3866197h.94507042c.67394366 0 .94507042.2478873.94507042.6971831 0 .4415493-.30211268.6894366-.96056338.6894366zm0 2.4091549v-1.5183098h.96056338c.69718309 0 1.0612676.2478873 1.0612676.7514084 0 .4880282-.30985915.7669014-1.00704225.7669014zm4.3457746.9605634h1.2549296v-5.7323943h-1.2549296zm2.4943662 0h1.2394367v-2.1612676h.728169l1.1929577 2.1612676h1.3323944l-1.278169-2.3239436c.7669014-.2323944 1.1929577-.728169 1.1929577-1.6345071 0-1.2704225-.8443662-1.7739436-2.2542253-1.7739436h-2.1535212zm1.2394367-3.1373239v-1.5647887h.8598591c.728169 0 1.0767606.2091549 1.0767606.7746478 0 .580986-.3485916.7901409-1.0767606.7901409zm4.2218309 3.1373239h1.7584508c1.7274647 0 3.0676056-.7436619 3.0676056-2.8971831 0-2.0915493-1.3169014-2.8352112-3.0676056-2.8352112h-1.7584508zm1.2549296-1.0225352v-3.656338h.5732395c1.2549295 0 1.7352112.5732394 1.7352112 1.7971831 0 1.3014084-.4725352 1.8591549-1.7197183 1.8591549zm6.6077465 1.1309859c1.5957747 0 2.2929577-.8211267 2.2929577-1.7429577 0-1.1852113-1.069014-1.5028169-2.0760563-1.7739437-.7514084-.2091549-1.1774648-.371831-1.1774648-.8288732 0-.3408451.2943662-.5732395.8288733-.5732395.5577464 0 1.1077464.3253522 1.4098591.8133803l.8753521-.6661972c-.4028169-.6119718-1.1-1.1774647-2.2774648-1.1774647-1.2316901 0-2.0683098.6429577-2.0683098 1.7119718 0 1.2007042 1.0690141 1.4640845 2.0915493 1.7507042.7514084.2091549 1.1619718.3950704 1.1619718.8288733 0 .4415493-.4183099.6584507-.9992958.6584507-.6584507 0-1.2316901-.3485916-1.5492957-.9760564l-.9528169.565493c.4260563.8211267 1.2007042 1.4098591 2.4401408 1.4098591z" fill="#000" fill-rule="nonzero"/></g></g></svg>