<svg height="53" viewBox="0 0 56 53" width="56" xmlns="http://www.w3.org/2000/svg"><g fill="none" fill-rule="evenodd" stroke="#222" stroke-width="1.612903" transform="translate(1.515528 1.692601)"><g fill-rule="nonzero"><path d="m0 0h52.688172v41.39785h-52.688172z" fill="#a3c3fd"/><path d="m0 41.39785h52.688172v8.602151h-52.688172z" fill="#a3c3fd"/><circle cx="20.16129" cy="20.698925" fill="#fff" r="16.39785"/><circle cx="20.16129" cy="20.698925" fill="#222" r="4.569892"/></g><path d="m20.967742 29.569893h4.301075v1.612903h-4.301075z"/><path d="m43.548387 3.225806h6.451613v6.451613h-6.451613z"/><path d="m40.0537634.26209677v41.41129033"/><circle cx="27.688172" cy="45.430108" r="1.344086"/><path d="m3.225806 44.086022h2.688172v2.688172h-2.688172z"/><path d="m8.602151 44.086022h2.688172v2.688172h-2.688172z"/><path d="m13.44086 44.086022h2.688172v2.688172h-2.688172z"/><path d="m18.817204 44.086022h2.688172v2.688172h-2.688172z"/><path d="m36.021505 44.086022h12.903226v2.688172h-12.903226z"/><path d="m46.2365591 6.4516129s-14.4153225 22.6326743-20.9677419 24.1935484"/></g></svg>