<svg height="53" viewBox="0 0 70 53" width="70" xmlns="http://www.w3.org/2000/svg"><g fill="none" fill-rule="nonzero" transform="translate(.984472 1.192601)"><g fill="#fba058" stroke="#222" stroke-linecap="round" stroke-linejoin="round" stroke-width="1.724138"><path d="m35.0574713 28.1609195h10.9195402v10.9195403h-10.9195402z"/><path d="m56.6091954 39.0804598h10.9195402v10.9195402h-10.9195402z"/><path d="m45.6896552 28.1609195h10.9195402v10.9195403h-10.9195402z"/><path d="m45.6896552 39.0804598h10.9195402v10.9195402h-10.9195402z"/></g><rect fill="#222" height="6.321839" rx=".574713" width="6.321839" x="37.068966" y="30.45977"/><rect fill="#222" height="6.321839" rx=".574713" width="6.321839" x="47.988506" y="30.45977"/><rect fill="#222" height="6.321839" rx=".574713" width="6.321839" x="47.988506" y="41.37931"/><rect fill="#222" height="6.321839" rx=".574713" width="6.321839" x="58.908046" y="41.37931"/><g fill="#fba058" stroke="#222" stroke-linecap="round" stroke-linejoin="round" stroke-width="1.724138" transform="translate(0 17.241379)"><path d="m22.1264368 0v10.9195402h-10.9195402v-10.9195402z"/><path d="m11.2068966 21.8390805v10.9195402h-10.91954028v-10.9195402z"/><path d="m22.1264368 10.9195402v10.9195403h-10.9195402v-10.9195403z"/><path d="m11.2068966 10.9195402v10.9195403h-10.91954028v-10.9195403z"/></g><g transform="translate(22.701149)"><g fill="#fba058" stroke="#222" stroke-linecap="round" stroke-linejoin="round" stroke-width="1.724138"><path d="m11.3643678 22.1264368v-10.9195402h10.9195402v10.9195402z"/><path d="m11.3643678 11.2068966v-10.91954028h10.9195402v10.91954028z"/><path d="m.44482759 11.2068966v-10.91954028h10.91954021v10.91954028z"/><path d="m22.283908 11.2068966v-10.91954028h10.9195403v10.91954028z"/></g><rect fill="#fff" height="5.747126" rx=".574713" width="5.747126" x="13.793103" y="13.793103"/><rect fill="#fff" height="5.747126" rx=".574713" width="5.747126" x="13.793103" y="2.873563"/><rect fill="#fff" height="5.747126" rx=".574713" width="5.747126" x="24.712644" y="2.873563"/><rect fill="#fff" height="5.747126" rx=".574713" width="5.747126" x="2.873563" y="2.873563"/></g></g></svg>