<svg height="51" viewBox="0 0 41 51" width="41" xmlns="http://www.w3.org/2000/svg" xmlns:xlink="http://www.w3.org/1999/xlink"><mask id="a" fill="#fff"/><g fill="none" fill-rule="evenodd" transform="translate(.546584 .192601)"><path d="m22.8073024 3.06894647c1.8524962-1.89367263 4.4363674-3.06894647 7.2947384-3.06894647 5.6355587 0 10.2040816 4.56852296 10.2040816 10.2040816 0 2.4383565-.8552562 4.6769571-2.282151 6.4321843 1.4110458 1.4283033 2.282151 3.3912287 2.282151 5.5576117 0 4.3675579-3.5406053 7.9081632-7.9081632 7.9081632-1.3612635 0-2.6421951-.3439415-3.7606341-.9496636-1.4060437 2.6872641-4.220793 4.5210922-7.4638557 4.5210922-1.3986574 0-2.7176486-.3410913-3.8783293-.9446294.0009833.0512692.0014772.1026582.0014772.1541626 0 4.353662-3.5293404 7.8830025-7.8830025 7.8830025-4.35366209 0-7.88300256-3.5293405-7.88300256-7.8830025 0-2.0684989.79669981-3.9509186 2.09998317-5.3571429-1.30328336-1.4062242-2.09998317-3.2886439-2.09998317-5.3571429 0-3.6971445 2.54517102-6.7998324 5.97895975-7.6515105-.23903806-.8686695-.36671485-1.7834749-.36671485-2.7281009 0-5.66560933 4.59288386-10.25849316 10.25849316-10.25849316 1.9838966 0 3.8362607.56315809 5.4059521 1.53833423z" fill="#222" fill-rule="nonzero"/><g transform="translate(0 32.142857)"><path d="m8.12588434 2.42483259h-.25646255-7.04056124v10.47991071c0 3.5792411 2.60331632 4.5597098 4.70420919 4.5597098h2.33635205.25646255 2.33635206c2.1003401 0 4.7036565-.9804687 4.7036565-4.5597098v-10.47991071z" fill="#70a4d8" fill-rule="nonzero"/><path d="m1.2755102 2.55102041 13.7755102.25510204v2.55102041s-11.81744185 1.59060964-13.52040816-.25510204c-.76530612-.82945532-.25510204-2.55102041-.25510204-2.55102041z" fill="#fff" fill-rule="nonzero"/><path d="m8.12588434 2.42483259h-.25646255-7.04056124v10.47991071c0 3.5792411 2.60331632 4.5597098 4.70420919 4.5597098h2.33635205.25646255 2.33635206c2.1003401 0 4.7036565-.9804687 4.7036565-4.5597098v-10.47991071z" stroke="#222" stroke-linejoin="round" stroke-width="1.530612"/><path d="m15.7966582 2.17079161s.190136-2.04292083-7.65960886-2.04292083c-7.84974492 0-7.93873301 1.83147602-7.93873301 1.83147602h.00055272s-.19013606 2.04292082 7.65960886 2.04292082c7.84919219 0 7.93873299-1.83147601 7.93873299-1.83147601z" fill="#222" fill-rule="nonzero" mask="url(#a)"/><path d="m.82908163 5.04486607s2.0494898.97879464 7.04000852.97879464c4.99051865 0 7.29702375-.97879464 7.29702375-.97879464" stroke="#222" stroke-linejoin="round" stroke-width="1.530612"/><path d="m15.4548555 3.56450893s3.8458333.61160714 4.320068 4.41462051c.4742347 3.80301346-4.320068 5.63839286-4.320068 5.63839286v-1.9447544s2.3446428-.7818081 2.3446428-3.06919647c0-2.28683036-2.3446428-3.04464286-2.3446428-3.04464286z" fill="#70a4d8" fill-rule="nonzero"/><path d="m19.8979594 8.16326515c.5102041 4.59183725-4.4431039 5.45425715-4.4431039 5.45425715v-1.9447544s2.3446428-.7818081 2.3446428-3.06919647c0-2.28683036-2.3446428-3.04464286-2.3446428-3.04464286v-1.99441964s3.9328998.006919 4.4431039 4.59875622z" stroke="#222" stroke-linejoin="round" stroke-width="1.530612"/></g></g></svg>